<?xml version="1.0" standalone="no"?>
<!DOCTYPE svg PUBLIC "-//W3C//DTD SVG 20010904//EN"
 "http://www.w3.org/TR/2001/REC-SVG-20010904/DTD/svg10.dtd">
<svg version="1.0" xmlns="http://www.w3.org/2000/svg"
 width="551.000000pt" height="551.000000pt" viewBox="0 0 551.000000 551.000000"
 preserveAspectRatio="xMidYMid meet">

<g transform="translate(0.000000,551.000000) scale(0.100000,-0.100000)"
fill="#000000" stroke="none">
<path d="M1830 5344 c-141 -50 -350 -149 -476 -225 -80 -48 -98 -69 -72 -85 8
-5 9 -1 5 12 -7 20 5 7 87 -90 22 -26 46 -53 51 -60 6 -6 34 -41 64 -76 76
-90 75 -89 57 -45 l-16 40 21 -25 c11 -14 35 -42 52 -64 18 -21 39 -47 49 -58
9 -10 31 -37 49 -59 34 -42 48 -46 29 -7 -11 22 -11 22 5 3 9 -11 23 -29 33
-40 9 -11 37 -44 61 -73 24 -29 45 -51 47 -49 3 2 -3 20 -11 40 -8 21 -13 37
-11 37 2 0 22 -24 44 -52 23 -29 53 -66 67 -83 l26 -30 -20 55 -21 55 28 -30
c15 -16 39 -45 55 -63 30 -37 34 -29 12 25 -21 49 -19 61 5 32 37 -43 63 -70
66 -66 2 1 -3 25 -11 52 -22 70 -19 73 22 22 21 -25 39 -44 41 -43 3 3 -10 59
-34 151 -5 18 15 -1 99 -95 8 -8 17 -24 21 -34 3 -10 8 -17 10 -15 5 5 -296
974 -304 982 -3 3 -61 -15 -130 -39z"/>
</g>
</svg>
